# xmcd CD database file
#
# Track frame offsets:
#	150
#	16219
#	29901
#	49644
#	73428
#	94931
#	118820
#	131351
#	148655
#	175513
#	194837
#
# Disc length: 2966 seconds
#
# Revision: 0
# Processed by: cddbd v1.5.1PL0 Copyright (c) Steve Scherf et al.
# Submitted via: CDex 1.50
#
DISCID=a70b940b
DTITLE=Big Wheel - Little Story
DYEAR=1900
DGENRE=Blues
TTITLE0=Better Make The Most Of It
TTITLE1=Morgantini With Mine
TTITLE2=Little Story
TTITLE3=Chitlins Con Carne
TTITLE4=Natural Ball
TTITLE5=Factory
TTITLE6=Every Night
TTITLE7=Break Of Day
TTITLE8=Won't You Be Mine
TTITLE9=Eight Hours A Day
TTITLE10=Lee County Cafe
EXTD=
EXTT0=
EXTT1=
EXTT2=
EXTT3=
EXTT4=
EXTT5=
EXTT6=
EXTT7=
EXTT8=
EXTT9=
EXTT10=
PLAYORDER=
